<?xml version="1.0" encoding="UTF-8" standalone="no"?>
<svg
   xmlns:dc="http://purl.org/dc/elements/1.1/"
   xmlns:cc="http://creativecommons.org/ns#"
   xmlns:rdf="http://www.w3.org/1999/02/22-rdf-syntax-ns#"
   xmlns:svg="http://www.w3.org/2000/svg"
   xmlns="http://www.w3.org/2000/svg"
   xml:space="preserve"
   style="enable-background:new 0 0 512 512;"
   viewBox="0 0 512 512"
   height="512px"
   width="512px"
   y="0px"
   x="0px"
   id="Capa_1"
   version="1.1"><metadata
     id="metadata41"><rdf:RDF><cc:Work
         rdf:about=""><dc:format>image/svg+xml</dc:format><dc:type
           rdf:resource="http://purl.org/dc/dcmitype/StillImage" /></cc:Work></rdf:RDF></metadata><defs
     id="defs39" /><g
     id="g4"><path
       id="path2"
       d="M30.269,0l41.072,460.815L255.719,512l184.861-51.262L481.731,0H30.269z M405.381,431.412L256.768,472.6v0.233   l-0.388-0.117l-0.391,0.117V472.6l-148.611-41.188L72.257,37.669h368.249L405.381,431.412z M325.377,265.102l-6.535,73.276   l-62.968,16.996l-0.137,0.039l-62.931-16.958l-4.025-45.117h-56.745l7.915,88.756l115.786,32.127h0.06h0.077l0.115-0.039   l115.671-32.088l15.521-173.506H181.197l-5.151-57.874h216.071h0.195l5.057-56.513H114.26l15.249,170.9H325.377L325.377,265.102z" /></g><g
     id="g6" /><g
     id="g8" /><g
     id="g10" /><g
     id="g12" /><g
     id="g14" /><g
     id="g16" /><g
     id="g18" /><g
     id="g20" /><g
     id="g22" /><g
     id="g24" /><g
     id="g26" /><g
     id="g28" /><g
     id="g30" /><g
     id="g32" /><g
     id="g34" /></svg>